<svg width="844" height="390" viewBox="0 0 844 390" fill="none" xmlns="http://www.w3.org/2000/svg">
<g clip-path="url(#clip0_410_3030)">
<rect width="390" height="844" transform="translate(1.52588e-05 390) rotate(-90)" fill="#F2F2F2"/>
<path d="M847.859 -75.8179C848.037 -73.4586 847.673 -70.4863 847.567 -67.5302C847.35 -61.4283 851.183 -54.8492 855.517 -50.5487C856.943 -49.1333 858.197 -47.9533 858.683 -47.4658C860.975 -45.1677 864.94 -39.261 865.114 -35.8928C865.431 -29.7243 868.499 -20.046 871.002 -14.5211C873.056 -9.98954 871.676 -4.92256 872.75 0.0477583C874.306 7.2473 879.714 16.9111 884.067 22.6179C891.459 32.3095 892.473 48.0435 890.069 59.4835C886.583 76.0818 868.743 84.3802 853.407 79.9204C834.656 74.4677 824.97 58.7504 812 45.7484C804.069 37.798 796.798 31.4771 786.73 26.4276C779.903 23.0036 772.847 20.5235 765.906 17.3973C758.176 13.9154 749.674 12.1912 742.744 7.34889C736.069 2.68429 730.075 -2.14005 725.196 -8.82837C714.646 -23.2909 696.244 -46.1094 701.208 -65.6679C703.07 -73.0056 705.039 -81.475 710.195 -87.2422C713.148 -90.5449 718.789 -96.0803 723.449 -96.4074C736.576 -97.3289 749.786 -91.7484 762.86 -90.665C780.652 -89.1908 794.919 -99.788 810.64 -105.88C821.94 -110.258 825.601 -109.449 834.293 -100.554C841.21 -93.476 847.088 -86.0047 847.859 -75.8179Z" fill="#62646C"/>
</g>
<defs>
<clipPath id="clip0_410_3030">
<rect width="390" height="844" fill="white" transform="translate(1.52588e-05 390) rotate(-90)"/>
</clipPath>
</defs>
</svg>
