<svg width="25" height="24" viewBox="0 0 25 24" fill="none" xmlns="http://www.w3.org/2000/svg">
<path d="M14.4922 11.8383C14.4922 13.0322 13.5968 14 12.4922 14C11.3876 14 10.4922 13.0322 10.4922 11.8383C10.4922 11.2639 10.8813 10.4568 11.2195 10.0696C11.5841 9.65214 11.9191 11.2487 12.4922 11.2487C13.0653 11.2487 13.4003 9.65214 13.7649 10.0696C14.1031 10.4568 14.4922 11.2639 14.4922 11.8383Z" fill="#E68F84"/>
<path d="M12.4922 24C14.1378 24 15.6843 23.6877 17.1316 23.0632C18.5789 22.4387 19.8553 21.5713 20.9606 20.461C22.0659 19.3507 22.9333 18.0719 23.5628 16.6245C24.1923 15.1772 24.5071 13.6357 24.5071 12C24.5071 10.3643 24.1923 8.82281 23.5628 7.37545C22.9333 5.92812 22.0634 4.64931 20.9531 3.53904C19.8429 2.42874 18.5641 1.56133 17.1167 0.936812C15.6694 0.312271 14.1229 0 12.4773 0C10.8416 0 9.30013 0.312271 7.85279 0.936812C6.40546 1.56133 5.1316 2.42874 4.03121 3.53904C2.93084 4.64931 2.06591 5.92812 1.43642 7.37545C0.806933 8.82281 0.492188 10.3643 0.492188 12C0.492188 13.6357 0.806933 15.1772 1.43642 16.6245C2.06591 18.0719 2.93332 19.3507 4.03864 20.461C5.14398 21.5713 6.42032 22.4387 7.86766 23.0632C9.31499 23.6877 10.8565 24 12.4922 24ZM12.4922 21.7398C11.144 21.7398 9.88252 21.4895 8.70781 20.9889C7.53307 20.4882 6.50209 19.7918 5.61486 18.8996C4.72762 18.0074 4.0337 16.9715 3.53308 15.7918C3.03247 14.6121 2.78216 13.3482 2.78216 12C2.78216 10.6518 3.02999 9.38786 3.52565 8.20817C4.02131 7.0285 4.71276 5.99257 5.59999 5.10036C6.48723 4.20817 7.5182 3.51177 8.69291 3.01115C9.86765 2.51054 11.1291 2.26023 12.4773 2.26023C13.8354 2.26023 15.1019 2.51054 16.2766 3.01115C17.4513 3.51177 18.4847 4.20817 19.377 5.10036C20.2691 5.99257 20.968 7.0285 21.4736 8.20817C21.9792 9.38786 22.232 10.6518 22.232 12C22.232 13.3482 21.9817 14.6121 21.481 15.7918C20.9804 16.9715 20.2865 18.0074 19.3992 18.8996C18.512 19.7918 17.4786 20.4882 16.2989 20.9889C15.1192 21.4895 13.8503 21.7398 12.4922 21.7398ZM12.4922 19.3903C13.8404 19.3903 15.0746 19.0533 16.1948 18.3792C17.315 17.7051 18.2097 16.8104 18.8788 15.6952C19.5479 14.5799 19.8825 13.3482 19.8825 12C19.8825 10.6518 19.5479 9.4176 18.8788 8.2974C18.2097 7.1772 17.315 6.28005 16.1948 5.60595C15.0746 4.93185 13.8404 4.5948 12.4922 4.5948C11.144 4.5948 9.91225 4.93185 8.79701 5.60595C7.68178 6.28005 6.78711 7.1772 6.11301 8.2974C5.43891 9.4176 5.10187 10.6518 5.10187 12C5.10187 13.3482 5.43891 14.5799 6.11301 15.6952C6.78711 16.8104 7.68426 17.7051 8.80447 18.3792C9.92465 19.0533 11.1539 19.3903 12.4922 19.3903ZM12.4922 17.2491C11.5504 17.2491 10.6805 17.0087 9.88252 16.5279C9.0845 16.0471 8.44757 15.4102 7.97175 14.6171C7.4959 13.824 7.25798 12.9517 7.25798 12C7.25798 11.0384 7.4959 10.1611 7.97175 9.36803C8.44757 8.57498 9.08202 7.93805 9.87509 7.45725C10.6681 6.97645 11.5405 6.73605 12.4922 6.73605C13.4438 6.73605 14.3162 6.97645 15.1093 7.45725C15.9023 7.93805 16.5393 8.57745 17.0201 9.37546C17.5009 10.1735 17.7413 11.0483 17.7413 12C17.7413 12.9517 17.5033 13.824 17.0275 14.6171C16.5517 15.4102 15.9147 16.0471 15.1167 16.5279C14.3187 17.0087 13.4438 17.2491 12.4922 17.2491Z" fill="#E68F84"/>
</svg>
