<svg width="192" height="188" viewBox="0 0 192 188" fill="none" xmlns="http://www.w3.org/2000/svg">
<path d="M157.916 148.445C155.552 148.545 152.594 148.083 149.643 147.88C143.551 147.461 136.849 151.075 132.408 155.265C130.946 156.644 129.726 157.857 129.222 158.328C126.85 160.543 120.815 164.311 117.443 164.373C111.268 164.486 101.494 167.234 95.889 169.553C91.2922 171.456 86.2735 169.91 81.2705 170.819C74.0235 172.137 64.1866 177.223 58.3392 181.385C48.409 188.454 32.6501 188.947 21.2956 186.168C4.82144 182.136 -2.88386 164.032 2.07953 148.851C8.14795 130.291 24.1763 121.128 37.5992 108.594C45.8069 100.93 52.3643 93.8718 57.7432 83.9758C61.3907 77.2652 64.1022 70.2945 67.4557 63.4613C71.1908 55.8504 73.1946 47.4094 78.2629 40.6434C83.1452 34.1256 88.1647 28.2937 95.0104 23.6381C109.813 13.5711 133.226 -4.06819 152.61 1.5389C159.883 3.64249 168.283 5.88913 173.876 11.233C177.08 14.2932 182.426 20.1141 182.599 24.7818C183.087 37.9319 177.074 50.9506 175.56 63.9823C173.499 81.7156 183.62 96.3245 189.19 112.238C193.193 123.677 192.263 127.309 183.086 135.703C175.784 142.382 168.123 148.01 157.916 148.445Z" fill="#DCDCDE"/>
</svg>
