<svg width="192" height="188" viewBox="0 0 192 188" fill="none" xmlns="http://www.w3.org/2000/svg">
<path d="M157.916 148.445C155.552 148.545 152.594 148.083 149.643 147.88C143.551 147.461 136.849 151.075 132.408 155.265C130.947 156.644 129.726 157.857 129.223 158.328C126.85 160.543 120.816 164.311 117.444 164.373C111.268 164.486 101.494 167.234 95.8893 169.553C91.2925 171.456 86.2738 169.91 81.2707 170.819C74.0237 172.137 64.1868 177.223 58.3394 181.385C48.4092 188.454 32.6504 188.947 21.2959 186.168C4.82169 182.136 -2.88362 164.032 2.07978 148.851C8.14819 130.291 24.1766 121.128 37.5995 108.594C45.8072 100.93 52.3646 93.8718 57.7435 83.9758C61.3909 77.2652 64.1025 70.2945 67.456 63.4613C71.1911 55.8504 73.1949 47.4094 78.2632 40.6434C83.1455 34.1256 88.165 28.2937 95.0106 23.6381C109.813 13.5711 133.227 -4.06819 152.611 1.5389C159.883 3.64249 168.283 5.88913 173.877 11.233C177.08 14.2932 182.426 20.1141 182.6 24.7818C183.088 37.9319 177.074 50.9506 175.56 63.9823C173.499 81.7156 183.62 96.3245 189.19 112.238C193.193 123.677 192.263 127.309 183.086 135.703C175.784 142.382 168.123 148.01 157.916 148.445Z" fill="#62646C"/>
</svg>
