<svg width="390" height="844" viewBox="0 0 390 844" fill="none" xmlns="http://www.w3.org/2000/svg">
<g clip-path="url(#clip0_410_3015)">
<rect width="390" height="844" fill="#F2F2F2"/>
<path d="M-93.482 399.705C-99.2153 411.865 -105.378 426.565 -104.872 440.344C-103.766 445.748 -104.54 447.786 -105.879 452.783C-106.869 456.479 -104.418 463.305 -102.634 466.396C-99.369 472.051 -99.058 481.017 -101.617 486.911C-109.337 504.691 -113.031 527.929 -113.598 547.332C-114.254 569.751 -116.054 598.106 -104.539 618.051C-96.8251 631.412 -85.3288 645.978 -73.5874 656.056C-66.5525 662.094 -56.0535 669.484 -46.7928 664.137C-31.1624 655.113 -27.4779 632.938 -16.718 619.587C-7.23713 607.823 5.35026 601.881 17.9666 594.109C30.1344 586.612 40.1992 576.771 51.2555 567.855C70.3865 552.429 82.058 534.634 76.8704 509.283C73.694 493.761 58.0833 483.116 44.9557 476.181C29.465 467.997 17.7711 462.77 8.50685 446.724C-4.13968 424.819 7.79062 399.55 -1.65327 376.562C-9.23128 358.115 -27.554 351.823 -45.5478 358.437C-66.4498 366.119 -83.8445 379.265 -93.482 399.705Z" fill="#62646C"/>
<path d="M502.138 513.91C500.186 515.246 497.431 516.42 494.82 517.81C489.43 520.679 485.657 527.293 484.107 533.199C483.597 535.142 483.204 536.818 483.025 537.483C482.185 540.619 479.06 547.01 476.232 548.847C471.053 552.212 464.214 559.717 460.687 564.652C457.794 568.699 452.718 570.044 448.955 573.464C443.504 578.418 437.851 587.94 435.093 594.567C430.41 605.82 417.301 614.581 406.196 618.233C390.085 623.532 373.965 612.252 370.14 596.745C365.464 577.786 374.212 561.528 378.966 543.789C381.872 532.941 383.699 523.482 383.025 512.239C382.567 504.615 381.178 497.266 380.406 489.693C379.546 481.259 376.778 473.037 377.496 464.614C378.188 456.499 379.36 448.895 382.703 441.321C389.933 424.944 400.46 397.586 419.874 392.082C427.157 390.017 435.473 387.477 443.048 389.049C447.385 389.95 455.002 392.059 457.62 395.927C464.995 406.826 466.784 421.054 472.398 432.912C480.037 449.047 496.356 456.084 509.505 466.637C518.957 474.223 520.09 477.797 516.748 489.776C514.088 499.308 510.568 508.138 502.138 513.91Z" fill="#62646C"/>
</g>
<defs>
<clipPath id="clip0_410_3015">
<rect width="390" height="844" fill="white"/>
</clipPath>
</defs>
</svg>
