<svg width="35" height="24" viewBox="0 0 35 24" fill="none" xmlns="http://www.w3.org/2000/svg">
<path d="M4.9707 11.8383C4.9707 13.0322 4.07527 14 2.9707 14C1.86613 14 0.970703 13.0322 0.970703 11.8383C0.970703 11.2639 1.35982 10.4568 1.69798 10.0696C2.06262 9.65214 2.3976 11.2487 2.9707 11.2487C3.5438 11.2487 3.87879 9.65214 4.24343 10.0696C4.58158 10.4568 4.9707 11.2639 4.9707 11.8383Z" fill="#62646C"/>
<path d="M4.9707 21.8383C4.9707 23.0322 4.07527 24 2.9707 24C1.86613 24 0.970703 23.0322 0.970703 21.8383C0.970703 21.2639 1.35982 20.4568 1.69798 20.0696C2.06262 19.6521 2.3976 21.2487 2.9707 21.2487C3.5438 21.2487 3.87879 19.6521 4.24343 20.0696C4.58158 20.4568 4.9707 21.2639 4.9707 21.8383Z" fill="#62646C"/>
<path d="M4.9707 1.8383C4.9707 3.03217 4.07527 4 2.9707 4C1.86613 4 0.970703 3.03217 0.970703 1.8383C0.970703 1.26386 1.35982 0.456759 1.69798 0.0696134C2.06262 -0.347859 2.3976 1.24873 2.9707 1.24873C3.5438 1.24873 3.87879 -0.347859 4.24343 0.0696134C4.58158 0.456759 4.9707 1.26386 4.9707 1.8383Z" fill="#62646C"/>
<path d="M10.4219 13.4923H32.5359C32.9504 13.4923 33.3027 13.3472 33.5929 13.0571C33.8831 12.7669 34.0281 12.4146 34.0281 12C34.0281 11.5855 33.8831 11.2332 33.5929 10.9431C33.3027 10.6529 32.9504 10.5078 32.5359 10.5078H10.4219C10.0074 10.5078 9.65508 10.6529 9.36492 10.9431C9.07477 11.2332 8.92969 11.5855 8.92969 12C8.92969 12.4146 9.07477 12.7669 9.36492 13.0571C9.65508 13.3472 10.0074 13.4923 10.4219 13.4923ZM10.4219 3.60626H32.5359C32.9504 3.60626 33.3027 3.46118 33.5929 3.17102C33.8831 2.88089 34.0281 2.52857 34.0281 2.11404C34.0281 1.69955 33.8831 1.34722 33.5929 1.05706C33.3027 0.766904 32.9504 0.621826 32.5359 0.621826H10.4219C10.0074 0.621826 9.65508 0.766904 9.36492 1.05706C9.07477 1.34722 8.92969 1.69955 8.92969 2.11404C8.92969 2.52857 9.07477 2.88089 9.36492 3.17102C9.65508 3.46118 10.0074 3.60626 10.4219 3.60626ZM10.4219 23.3783H32.5359C32.9504 23.3783 33.3027 23.2332 33.5929 22.943C33.8831 22.6529 34.0281 22.3006 34.0281 21.886C34.0281 21.4715 33.8831 21.1192 33.5929 20.8291C33.3027 20.5389 32.9504 20.3938 32.5359 20.3938H10.4219C10.0074 20.3938 9.65508 20.5389 9.36492 20.8291C9.07477 21.1192 8.92969 21.4715 8.92969 21.886C8.92969 22.3006 9.07477 22.6529 9.36492 22.943C9.65508 23.2332 10.0074 23.3783 10.4219 23.3783Z" fill="#62646C"/>
</svg>
