<svg width="390" height="844" viewBox="0 0 390 844" fill="none" xmlns="http://www.w3.org/2000/svg">
<g clip-path="url(#clip0_403_2327)">
<rect width="390" height="844" fill="#3B3C43"/>
<path d="M-72.5941 259.41C-82.3583 268.651 -93.4465 280.101 -97.988 293.12C-98.924 298.557 -100.387 300.173 -103.451 304.34C-105.718 307.423 -105.919 314.673 -105.381 318.202C-104.397 324.657 -107.369 333.122 -111.897 337.68C-125.557 351.433 -137.451 371.735 -145.038 389.603C-153.805 410.247 -165.798 436.004 -162.328 458.771C-160.003 474.024 -154.593 491.773 -147.323 505.433C-142.967 513.616 -135.876 524.319 -125.305 522.708C-107.462 519.989 -95.9629 500.674 -81.083 492.152C-67.9721 484.643 -54.0857 483.688 -39.5061 481.037C-25.4449 478.481 -12.4894 472.976 1.05264 468.694C24.4847 461.284 41.8305 448.954 46.2208 423.454C48.9091 407.839 38.2406 392.245 28.5356 381.009C17.0836 367.75 8.09271 358.627 5.30086 340.31C1.48972 315.306 21.7954 296.109 21.3619 271.259C21.014 251.32 6.23569 238.794 -12.9311 238.408C-35.1958 237.96 -56.181 243.877 -72.5941 259.41Z" fill="#DCDCDE"/>
<path d="M444.916 832.445C442.552 832.545 439.594 832.083 436.643 831.88C430.551 831.461 423.849 835.075 419.408 839.265C417.947 840.644 416.726 841.857 416.223 842.328C413.85 844.543 407.816 848.311 404.444 848.373C398.268 848.486 388.494 851.234 382.889 853.553C378.292 855.456 373.274 853.91 368.271 854.819C361.024 856.137 351.187 861.223 345.339 865.385C335.409 872.454 319.65 872.947 308.296 870.168C291.822 866.136 284.116 848.032 289.08 832.851C295.148 814.291 311.177 805.128 324.599 792.594C332.807 784.93 339.365 777.872 344.743 767.976C348.391 761.265 351.102 754.295 354.456 747.461C358.191 739.85 360.195 731.409 365.263 724.643C370.145 718.126 375.165 712.294 382.011 707.638C396.813 697.571 420.227 679.932 439.611 685.539C446.883 687.642 455.283 689.889 460.877 695.233C464.08 698.293 469.426 704.114 469.6 708.782C470.088 721.932 464.074 734.951 462.56 747.982C460.499 765.716 470.62 780.324 476.19 796.238C480.193 807.677 479.263 811.309 470.086 819.703C462.784 826.382 455.123 832.01 444.916 832.445Z" fill="#DCDCDE"/>
</g>
<defs>
<clipPath id="clip0_403_2327">
<rect width="390" height="844" fill="white"/>
</clipPath>
</defs>
</svg>
