<svg width="844" height="390" viewBox="0 0 844 390" fill="none" xmlns="http://www.w3.org/2000/svg">
<g clip-path="url(#clip0_403_2337)">
<rect width="390" height="844" transform="translate(0 390) rotate(-90)" fill="#3B3C43"/>
<path d="M408.35 -43.2512C400.686 -54.2963 391.037 -66.9833 378.851 -73.4346C373.617 -75.1792 372.24 -76.8687 368.582 -80.5261C365.876 -83.2319 358.739 -84.5224 355.17 -84.5224C348.64 -84.5224 340.72 -88.7363 336.895 -93.8991C325.357 -109.475 307.079 -124.293 290.559 -134.486C271.472 -146.263 247.816 -162 224.786 -162C209.357 -162 190.995 -159.327 176.396 -154.197C167.649 -151.124 156 -145.727 156 -135.033C156 -116.985 173.362 -102.707 179.545 -86.7126C184.992 -72.6199 183.844 -58.7481 184.267 -43.9356C184.675 -29.6499 188.166 -16.0127 190.359 -1.98004C194.153 22.3009 203.728 41.3066 228.276 49.4892C243.307 54.4996 260.331 46.3026 272.901 38.4014C287.734 29.078 298.108 21.5644 316.636 21.5644C341.929 21.5644 357.848 44.5309 382.478 47.8465C402.243 50.5071 416.853 37.785 420.122 18.8951C423.92 -3.04779 421.233 -24.685 408.35 -43.2512Z" fill="#DCDCDE"/>
<path d="M894.916 379.445C892.552 379.545 889.594 379.083 886.643 378.88C880.551 378.461 873.849 382.075 869.408 386.265C867.947 387.644 866.726 388.857 866.223 389.327C863.85 391.543 857.816 395.311 854.444 395.373C848.268 395.486 838.494 398.234 832.889 400.553C828.292 402.456 823.274 400.91 818.271 401.819C811.024 403.137 801.187 408.223 795.339 412.385C785.409 419.454 769.65 419.947 758.296 417.168C741.822 413.135 734.116 395.032 739.08 379.851C745.148 361.29 761.177 352.128 774.599 339.594C782.807 331.93 789.365 324.872 794.743 314.976C798.391 308.265 801.102 301.294 804.456 294.461C808.191 286.85 810.195 278.409 815.263 271.643C820.145 265.126 825.165 259.294 832.011 254.638C846.813 244.571 870.227 226.932 889.611 232.539C896.883 234.642 905.283 236.889 910.877 242.233C914.08 245.293 919.426 251.114 919.6 255.782C920.088 268.932 914.074 281.951 912.56 294.982C910.499 312.716 920.62 327.324 926.19 343.238C930.193 354.677 929.263 358.309 920.086 366.703C912.784 373.382 905.123 379.01 894.916 379.445Z" fill="#DCDCDE"/>
</g>
<defs>
<clipPath id="clip0_403_2337">
<rect width="390" height="844" fill="white" transform="translate(0 390) rotate(-90)"/>
</clipPath>
</defs>
</svg>
