<svg width="214" height="269" viewBox="0 0 214 269" fill="none" xmlns="http://www.w3.org/2000/svg">
<path d="M115.013 14.4187C104.138 22.3227 91.6657 32.2475 85.4828 44.5717C83.8533 49.8423 82.1944 51.2567 78.6179 54.9934C75.9721 57.7577 74.8382 64.9216 74.9164 68.4901C75.0594 75.0181 71.02 83.0289 65.9421 86.9654C50.6225 98.8416 36.2089 117.44 26.38 134.179C15.0235 153.52 -0.191438 177.515 0.312953 200.54C0.650853 215.964 3.72565 234.264 9.17339 248.747C12.4374 257.424 18.0888 268.952 28.7796 268.718C46.8236 268.323 60.7183 250.652 76.5731 244.121C90.5432 238.366 104.437 239.21 119.236 238.463C133.51 237.742 147.067 233.953 161.048 231.454C185.241 227.129 204.032 217.139 211.675 192.418C216.355 177.281 207.787 160.441 199.612 148.047C189.966 133.422 182.227 123.215 181.822 104.691C181.268 79.4039 203.88 62.9862 206.655 38.2888C208.883 18.471 195.843 4.14313 176.887 1.28823C154.866 -2.02809 133.292 1.13252 115.013 14.4187Z" fill="#62646C"/>
</svg>
