<svg width="210" height="285" viewBox="0 0 210 285" fill="none" xmlns="http://www.w3.org/2000/svg">
<path d="M90.4057 21.4099C80.6415 30.6506 69.5533 42.1014 65.0118 55.1201C64.0757 60.557 62.6131 62.1735 59.5485 66.3403C57.2814 69.4228 57.081 76.6731 57.6189 80.2017C58.6027 86.6567 55.6304 95.1217 51.1028 99.6803C37.4431 113.433 25.5489 133.735 17.9613 151.603C9.19451 172.247 -2.79813 198.004 0.672037 220.771C2.99676 236.024 8.40634 253.773 15.6767 267.433C20.0328 275.616 27.1241 286.319 37.6953 284.708C55.5376 281.989 67.0369 262.674 81.9167 254.152C95.0277 246.643 108.914 245.688 123.494 243.037C137.555 240.481 150.51 234.976 164.052 230.694C187.484 223.284 204.83 210.954 209.221 185.454C211.909 169.839 201.24 154.245 191.535 143.009C180.083 129.75 171.092 120.627 168.301 102.31C164.489 77.3059 184.795 58.1086 184.362 33.2595C184.014 13.32 169.235 0.793729 150.069 0.407968C127.804 -0.0401418 106.819 5.87683 90.4057 21.4099Z" fill="#DCDCDE"/>
</svg>
