<svg width="844" height="390" viewBox="0 0 844 390" fill="none" xmlns="http://www.w3.org/2000/svg">
<g clip-path="url(#clip0_403_2341)">
<rect width="390" height="844" transform="translate(0 390) rotate(-90)" fill="#F2F2F2"/>
<path d="M408.35 -43.2515C400.686 -54.2966 391.037 -66.9836 378.851 -73.4349C373.617 -75.1794 372.24 -76.8689 368.582 -80.5264C365.876 -83.2321 358.739 -84.5226 355.17 -84.5226C348.64 -84.5226 340.72 -88.7365 336.895 -93.8993C325.357 -109.475 307.079 -124.293 290.559 -134.486C271.472 -146.263 247.816 -162 224.786 -162C209.357 -162 190.995 -159.327 176.396 -154.198C167.649 -151.124 156 -145.727 156 -135.034C156 -116.985 173.362 -102.707 179.545 -86.7128C184.992 -72.6201 183.844 -58.7484 184.267 -43.9359C184.675 -29.6501 188.166 -16.0129 190.359 -1.98028C194.153 22.3007 203.728 41.3063 228.276 49.4889C243.307 54.4993 260.331 46.3023 272.901 38.4011C287.734 29.0777 298.108 21.5641 316.636 21.5641C341.929 21.5641 357.848 44.5306 382.478 47.8463C402.243 50.5069 416.853 37.7847 420.122 18.8949C423.92 -3.04803 421.233 -24.6853 408.35 -43.2515Z" fill="#62646C"/>
<path d="M894.916 379.444C892.552 379.545 889.594 379.082 886.643 378.88C880.551 378.461 873.849 382.074 869.408 386.265C867.947 387.644 866.726 388.857 866.223 389.327C863.85 391.543 857.816 395.31 854.444 395.372C848.268 395.486 838.494 398.233 832.889 400.553C828.292 402.455 823.274 400.909 818.271 401.819C811.024 403.137 801.187 408.223 795.339 412.385C785.409 419.454 769.65 419.947 758.296 417.168C741.822 413.135 734.116 395.032 739.08 379.851C745.148 361.29 761.177 352.128 774.599 339.594C782.807 331.929 789.365 324.871 794.743 314.975C798.391 308.265 801.102 301.294 804.456 294.461C808.191 286.85 810.195 278.409 815.263 271.643C820.145 265.125 825.165 259.293 832.011 254.638C846.813 244.571 870.227 226.931 889.611 232.539C896.883 234.642 905.283 236.889 910.877 242.233C914.08 245.293 919.426 251.114 919.6 255.781C920.088 268.932 914.074 281.95 912.56 294.982C910.499 312.715 920.62 327.324 926.19 343.238C930.193 354.676 929.263 358.309 920.086 366.703C912.784 373.382 905.123 379.01 894.916 379.444Z" fill="#62646C"/>
</g>
<defs>
<clipPath id="clip0_403_2341">
<rect width="390" height="844" fill="white" transform="translate(0 390) rotate(-90)"/>
</clipPath>
</defs>
</svg>
